<svg xmlns="http://www.w3.org/2000/svg" xmlns:xlink="http://www.w3.org/1999/xlink" width="880" height="33" viewBox="0 0 880 33">
  <defs>
    <clipPath id="clip-path">
      <rect id="사각형_58" data-name="사각형 58" width="880" height="33" transform="translate(-94 -725)" fill="#fff"/>
    </clipPath>
    <linearGradient id="linear-gradient" x1="0.5" y1="1.25" x2="0.5" y2="-0.25" gradientUnits="objectBoundingBox">
      <stop offset="0" stop-color="#071726" stop-opacity="0"/>
      <stop offset="0.121" stop-color="#071726" stop-opacity="0.122"/>
      <stop offset="0.153" stop-color="#071726" stop-opacity="0.153"/>
      <stop offset="1" stop-color="#153149"/>
    </linearGradient>
  </defs>
  <g id="마스크_그룹_2" data-name="마스크 그룹 2" transform="translate(94 725)" clip-path="url(#clip-path)">
    <g id="사각형_2_복사_18" data-name="사각형 2 복사 18" transform="translate(-629 -1058)">
      <g id="사각형_2_복사_18-2" data-name="사각형 2 복사 18" fill="none" stroke-linejoin="round">
        <path d="M535,800V337.978L540,333H867.5l10,22h195l10-22H1410l5,5.135V800Z" stroke="none"/>
        <path d="M 1414.000366210938 798.9996337890625 L 1414.000366210938 338.5414733886719 L 1409.578125 334.0000915527344 L 1083.143920898438 334.0000915527344 L 1073.410522460938 355.4137573242188 C 1073.248413085938 355.770751953125 1072.892333984375 356 1072.500244140625 356 L 877.5 356 C 877.10791015625 356 876.7518920898438 355.770751953125 876.5896606445312 355.4137573242188 L 866.8562622070312 334.0000915527344 L 540.4129638671875 334.0000915527344 L 536.0001220703125 338.39404296875 L 536.0001220703125 798.9996337890625 L 1414.000366210938 798.9996337890625 M 1415.000366210938 799.9996337890625 L 535.0001220703125 799.9996337890625 L 535.0001220703125 337.9785461425781 L 540 333.0000915527344 L 867.5001220703125 333.0000915527344 L 877.5 355 L 1072.500244140625 355 L 1082.5 333.0000915527344 L 1410.000122070312 333.0000915527344 L 1415.000366210938 338.1349792480469 L 1415.000366210938 799.9996337890625 Z" stroke="none" fill="#183b5a"/>
      </g>
      <path id="Gradient_Overlay" data-name="Gradient Overlay" d="M535,800V337.978L540,333H867.5l10,22h195l10-22H1410l5,5.135V800Z" opacity="0.56" fill="url(#linear-gradient)"/>
    </g>
  </g>
</svg>
