<svg xmlns="http://www.w3.org/2000/svg" xmlns:xlink="http://www.w3.org/1999/xlink" width="1040" height="33" viewBox="0 0 1040 33">
  <defs>
    <clipPath id="clip-path">
      <path id="패스_334" data-name="패스 334" d="M-80,0H960V33H-80Z" transform="translate(-94 -725)" fill="#fff"/>
    </clipPath>
    <linearGradient id="linear-gradient" x1="0.5" y1="1.25" x2="0.5" y2="-0.25" gradientUnits="objectBoundingBox">
      <stop offset="0" stop-color="#071726" stop-opacity="0"/>
      <stop offset="0.121" stop-color="#071726" stop-opacity="0.122"/>
      <stop offset="0.153" stop-color="#071726" stop-opacity="0.153"/>
      <stop offset="1" stop-color="#153149"/>
    </linearGradient>
  </defs>
  <g id="마스크_그룹_2" data-name="마스크 그룹 2" transform="translate(174 725)" clip-path="url(#clip-path)">
    <g id="사각형_2_복사_18" data-name="사각형 2 복사 18" transform="translate(-629 -1058)">
      <g id="사각형_2_복사_18-2" data-name="사각형 2 복사 18" fill="none" stroke-linejoin="round">
        <path d="M455,800V337.978L460,333H867.5l10,19h195l10-19H1490l5,5.135V800Z" stroke="none"/>
        <path d="M 1494.000366210938 798.999755859375 L 1494.000366210938 338.5414428710938 L 1489.578125 334.0001525878906 L 1083.103759765625 334.0001525878906 L 1073.385131835938 352.4657592773438 C 1073.212280273438 352.7942810058594 1072.87158203125 353 1072.500244140625 353 L 877.5 353 C 877.128662109375 353 876.7879638671875 352.7942810058594 876.6150512695312 352.4657592773438 L 866.8963623046875 334.0001525878906 L 460.4129943847656 334.0001525878906 L 456.0001220703125 338.3940734863281 L 456.0001220703125 798.999755859375 L 1494.000366210938 798.999755859375 M 1495.000366210938 799.999755859375 L 455.0001220703125 799.999755859375 L 455.0001220703125 337.9785461425781 L 459.9999694824219 333.0001525878906 L 867.5001220703125 333.0001525878906 L 877.5 352 L 1072.500244140625 352 L 1082.5 333.0001525878906 L 1490.000122070312 333.0001525878906 L 1495.000366210938 338.1350708007812 L 1495.000366210938 799.999755859375 Z" stroke="none" fill="#183b5a"/>
      </g>
      <path id="Gradient_Overlay" data-name="Gradient Overlay" d="M455,795V337.978L460,333H867.5l10,19h195l10-19H1490l5,5.135V800Z" opacity="0.56" fill="url(#linear-gradient)"/>
    </g>
  </g>
</svg>
